<mxfile host="app.diagrams.net" modified="2024-05-22T00:01:29.148Z" agent="Mozilla/5.0 (Windows NT 10.0; Win64; x64) AppleWebKit/537.36 (KHTML, like Gecko) Chrome/125.0.0.0 Safari/537.36" etag="Orl75MhbkFF2ZEeVEXzH" version="24.4.4" type="github">
  <diagram name="Página-1" id="Hpx_vAJ1bZp_XK0Hu1RE">
    <mxGraphModel dx="880" dy="468" grid="1" gridSize="10" guides="1" tooltips="1" connect="1" arrows="1" fold="1" page="1" pageScale="1" pageWidth="827" pageHeight="1169" math="0" shadow="0">
      <root>
        <mxCell id="0" />
        <mxCell id="1" parent="0" />
        <mxCell id="k4MI8N_epbBp80HEhz9m-2" style="edgeStyle=orthogonalEdgeStyle;rounded=0;orthogonalLoop=1;jettySize=auto;html=1;" edge="1" parent="1" source="k4MI8N_epbBp80HEhz9m-1">
          <mxGeometry relative="1" as="geometry">
            <mxPoint x="520" y="40" as="targetPoint" />
          </mxGeometry>
        </mxCell>
        <mxCell id="k4MI8N_epbBp80HEhz9m-7" style="edgeStyle=orthogonalEdgeStyle;rounded=0;orthogonalLoop=1;jettySize=auto;html=1;" edge="1" parent="1" source="k4MI8N_epbBp80HEhz9m-1">
          <mxGeometry relative="1" as="geometry">
            <mxPoint x="414" y="130" as="targetPoint" />
          </mxGeometry>
        </mxCell>
        <mxCell id="k4MI8N_epbBp80HEhz9m-1" value="&lt;b&gt;INICIO&lt;/b&gt;" style="rounded=1;whiteSpace=wrap;html=1;" vertex="1" parent="1">
          <mxGeometry x="354" y="10" width="120" height="60" as="geometry" />
        </mxCell>
        <mxCell id="k4MI8N_epbBp80HEhz9m-3" value="cadeia &lt;b&gt;texto1&lt;/b&gt;&lt;div&gt;cadeia &lt;b&gt;texto2&lt;/b&gt;&lt;/div&gt;&lt;div&gt;logico &lt;b&gt;teste&lt;/b&gt;&lt;/div&gt;" style="rounded=0;whiteSpace=wrap;html=1;" vertex="1" parent="1">
          <mxGeometry x="520" y="10" width="120" height="60" as="geometry" />
        </mxCell>
        <mxCell id="k4MI8N_epbBp80HEhz9m-9" style="edgeStyle=orthogonalEdgeStyle;rounded=0;orthogonalLoop=1;jettySize=auto;html=1;" edge="1" parent="1" source="k4MI8N_epbBp80HEhz9m-8">
          <mxGeometry relative="1" as="geometry">
            <mxPoint x="414" y="240" as="targetPoint" />
          </mxGeometry>
        </mxCell>
        <mxCell id="k4MI8N_epbBp80HEhz9m-11" style="edgeStyle=orthogonalEdgeStyle;rounded=0;orthogonalLoop=1;jettySize=auto;html=1;" edge="1" parent="1" source="k4MI8N_epbBp80HEhz9m-8">
          <mxGeometry relative="1" as="geometry">
            <mxPoint x="550" y="170" as="targetPoint" />
          </mxGeometry>
        </mxCell>
        <mxCell id="k4MI8N_epbBp80HEhz9m-8" value="Olá insira o seu email para login:" style="rounded=0;whiteSpace=wrap;html=1;" vertex="1" parent="1">
          <mxGeometry x="354" y="140" width="120" height="60" as="geometry" />
        </mxCell>
        <mxCell id="k4MI8N_epbBp80HEhz9m-10" value="&lt;b&gt;texto1 &lt;/b&gt;&amp;lt;- entrada" style="ellipse;whiteSpace=wrap;html=1;" vertex="1" parent="1">
          <mxGeometry x="354" y="240" width="120" height="30" as="geometry" />
        </mxCell>
        <mxCell id="k4MI8N_epbBp80HEhz9m-13" style="edgeStyle=orthogonalEdgeStyle;rounded=0;orthogonalLoop=1;jettySize=auto;html=1;" edge="1" parent="1" source="k4MI8N_epbBp80HEhz9m-12">
          <mxGeometry relative="1" as="geometry">
            <mxPoint x="610" y="240" as="targetPoint" />
          </mxGeometry>
        </mxCell>
        <mxCell id="k4MI8N_epbBp80HEhz9m-12" value="Por segurança insira novamente o seu email para confirmar:" style="rounded=0;whiteSpace=wrap;html=1;" vertex="1" parent="1">
          <mxGeometry x="550" y="140" width="120" height="60" as="geometry" />
        </mxCell>
        <mxCell id="k4MI8N_epbBp80HEhz9m-14" value="&lt;b&gt;texto2&amp;nbsp;&lt;/b&gt;&amp;lt;- entrada" style="ellipse;whiteSpace=wrap;html=1;" vertex="1" parent="1">
          <mxGeometry x="550" y="240" width="120" height="30" as="geometry" />
        </mxCell>
        <mxCell id="k4MI8N_epbBp80HEhz9m-15" value="" style="strokeWidth=2;html=1;shape=mxgraph.flowchart.annotation_2;align=left;labelPosition=right;pointerEvents=1;direction=north;" vertex="1" parent="1">
          <mxGeometry x="414" y="270" width="200" height="50" as="geometry" />
        </mxCell>
        <mxCell id="k4MI8N_epbBp80HEhz9m-16" value="&lt;b&gt;teste &lt;/b&gt;= (texto1==texto2)" style="shape=process;whiteSpace=wrap;html=1;backgroundOutline=1;" vertex="1" parent="1">
          <mxGeometry x="436" y="320" width="156" height="60" as="geometry" />
        </mxCell>
        <mxCell id="k4MI8N_epbBp80HEhz9m-39" style="edgeStyle=orthogonalEdgeStyle;rounded=0;orthogonalLoop=1;jettySize=auto;html=1;" edge="1" parent="1" source="k4MI8N_epbBp80HEhz9m-17">
          <mxGeometry relative="1" as="geometry">
            <mxPoint x="340" y="870" as="targetPoint" />
          </mxGeometry>
        </mxCell>
        <mxCell id="k4MI8N_epbBp80HEhz9m-17" value="se (teste==verdadeiro){&lt;div&gt;escreva(&quot;Login correto, pronto!\n&quot;) }&lt;/div&gt;" style="rounded=0;whiteSpace=wrap;html=1;" vertex="1" parent="1">
          <mxGeometry x="280" y="400" width="120" height="60" as="geometry" />
        </mxCell>
        <mxCell id="k4MI8N_epbBp80HEhz9m-18" value="&lt;div&gt;&lt;br&gt;&lt;/div&gt;" style="rounded=0;whiteSpace=wrap;html=1;" vertex="1" parent="1">
          <mxGeometry x="590" y="390" width="190" height="470" as="geometry" />
        </mxCell>
        <mxCell id="k4MI8N_epbBp80HEhz9m-19" value="" style="endArrow=classic;html=1;rounded=0;exitX=0;exitY=0.5;exitDx=0;exitDy=0;entryX=0.5;entryY=0;entryDx=0;entryDy=0;" edge="1" parent="1" source="k4MI8N_epbBp80HEhz9m-16" target="k4MI8N_epbBp80HEhz9m-17">
          <mxGeometry width="50" height="50" relative="1" as="geometry">
            <mxPoint x="420" y="450" as="sourcePoint" />
            <mxPoint x="470" y="400" as="targetPoint" />
            <Array as="points">
              <mxPoint x="340" y="350" />
            </Array>
          </mxGeometry>
        </mxCell>
        <mxCell id="k4MI8N_epbBp80HEhz9m-21" value="senao{&lt;div&gt;escreva(&quot;Login incorreto!&quot;\n)&lt;/div&gt;&lt;div&gt;enquanto(teste != verdadeiro){&lt;/div&gt;&lt;div&gt;&lt;br style=&quot;text-wrap: wrap;&quot;&gt;&lt;/div&gt;" style="text;html=1;align=center;verticalAlign=middle;resizable=0;points=[];autosize=1;strokeColor=none;fillColor=none;" vertex="1" parent="1">
          <mxGeometry x="590" y="395" width="190" height="70" as="geometry" />
        </mxCell>
        <mxCell id="k4MI8N_epbBp80HEhz9m-25" style="edgeStyle=orthogonalEdgeStyle;rounded=0;orthogonalLoop=1;jettySize=auto;html=1;entryX=0.5;entryY=0;entryDx=0;entryDy=0;" edge="1" parent="1" source="k4MI8N_epbBp80HEhz9m-22" target="k4MI8N_epbBp80HEhz9m-23">
          <mxGeometry relative="1" as="geometry" />
        </mxCell>
        <mxCell id="k4MI8N_epbBp80HEhz9m-22" value="Olá insira o seu email para login:" style="rounded=0;whiteSpace=wrap;html=1;" vertex="1" parent="1">
          <mxGeometry x="625" y="450" width="120" height="30" as="geometry" />
        </mxCell>
        <mxCell id="k4MI8N_epbBp80HEhz9m-23" value="&lt;b&gt;texto1 &lt;/b&gt;&amp;lt;- entrada" style="ellipse;whiteSpace=wrap;html=1;" vertex="1" parent="1">
          <mxGeometry x="625" y="500" width="120" height="20" as="geometry" />
        </mxCell>
        <mxCell id="k4MI8N_epbBp80HEhz9m-34" style="edgeStyle=orthogonalEdgeStyle;rounded=0;orthogonalLoop=1;jettySize=auto;html=1;entryX=0.5;entryY=0;entryDx=0;entryDy=0;" edge="1" parent="1" source="k4MI8N_epbBp80HEhz9m-29" target="k4MI8N_epbBp80HEhz9m-33">
          <mxGeometry relative="1" as="geometry" />
        </mxCell>
        <mxCell id="k4MI8N_epbBp80HEhz9m-29" value="Por segurança insira novamente o seu email para confirmar:" style="rounded=0;whiteSpace=wrap;html=1;" vertex="1" parent="1">
          <mxGeometry x="625" y="540" width="120" height="60" as="geometry" />
        </mxCell>
        <mxCell id="k4MI8N_epbBp80HEhz9m-32" value="" style="endArrow=classic;html=1;rounded=0;exitX=0.5;exitY=1;exitDx=0;exitDy=0;entryX=0.5;entryY=0;entryDx=0;entryDy=0;" edge="1" parent="1" source="k4MI8N_epbBp80HEhz9m-23" target="k4MI8N_epbBp80HEhz9m-29">
          <mxGeometry width="50" height="50" relative="1" as="geometry">
            <mxPoint x="420" y="610" as="sourcePoint" />
            <mxPoint x="470" y="560" as="targetPoint" />
          </mxGeometry>
        </mxCell>
        <mxCell id="k4MI8N_epbBp80HEhz9m-36" style="edgeStyle=orthogonalEdgeStyle;rounded=0;orthogonalLoop=1;jettySize=auto;html=1;entryX=0.5;entryY=0;entryDx=0;entryDy=0;" edge="1" parent="1" source="k4MI8N_epbBp80HEhz9m-33" target="k4MI8N_epbBp80HEhz9m-35">
          <mxGeometry relative="1" as="geometry" />
        </mxCell>
        <mxCell id="k4MI8N_epbBp80HEhz9m-33" value="&lt;b&gt;texto2&amp;nbsp;&lt;/b&gt;&amp;lt;- entrada" style="ellipse;whiteSpace=wrap;html=1;" vertex="1" parent="1">
          <mxGeometry x="625" y="620" width="120" height="20" as="geometry" />
        </mxCell>
        <mxCell id="k4MI8N_epbBp80HEhz9m-35" value="&lt;b&gt;teste &lt;/b&gt;= (texto1==texto2)" style="shape=process;whiteSpace=wrap;html=1;backgroundOutline=1;" vertex="1" parent="1">
          <mxGeometry x="607" y="670" width="156" height="40" as="geometry" />
        </mxCell>
        <mxCell id="k4MI8N_epbBp80HEhz9m-37" value="se(teste==verdadeiro){&lt;div&gt;&quot;Login correto&quot;}&lt;/div&gt;&lt;div&gt;senao{&lt;/div&gt;&lt;div&gt;&quot;Login incorreto&quot;}&lt;/div&gt;" style="text;html=1;align=center;verticalAlign=middle;resizable=0;points=[];autosize=1;strokeColor=none;fillColor=none;" vertex="1" parent="1">
          <mxGeometry x="620" y="715" width="140" height="70" as="geometry" />
        </mxCell>
        <mxCell id="k4MI8N_epbBp80HEhz9m-38" value="" style="endArrow=classic;html=1;rounded=0;exitX=1;exitY=0.5;exitDx=0;exitDy=0;entryX=0.5;entryY=0;entryDx=0;entryDy=0;" edge="1" parent="1" source="k4MI8N_epbBp80HEhz9m-16" target="k4MI8N_epbBp80HEhz9m-18">
          <mxGeometry width="50" height="50" relative="1" as="geometry">
            <mxPoint x="420" y="510" as="sourcePoint" />
            <mxPoint x="470" y="460" as="targetPoint" />
            <Array as="points">
              <mxPoint x="690" y="350" />
            </Array>
          </mxGeometry>
        </mxCell>
        <mxCell id="k4MI8N_epbBp80HEhz9m-40" value="" style="endArrow=classic;html=1;rounded=0;exitX=0.539;exitY=1.005;exitDx=0;exitDy=0;exitPerimeter=0;entryX=1;entryY=0.5;entryDx=0;entryDy=0;" edge="1" parent="1" source="k4MI8N_epbBp80HEhz9m-18" target="k4MI8N_epbBp80HEhz9m-41">
          <mxGeometry width="50" height="50" relative="1" as="geometry">
            <mxPoint x="420" y="810" as="sourcePoint" />
            <mxPoint x="470" y="870" as="targetPoint" />
            <Array as="points">
              <mxPoint x="697" y="900" />
            </Array>
          </mxGeometry>
        </mxCell>
        <mxCell id="k4MI8N_epbBp80HEhz9m-41" value="&lt;b&gt;FIM&lt;/b&gt;" style="rounded=1;whiteSpace=wrap;html=1;" vertex="1" parent="1">
          <mxGeometry x="294" y="870" width="120" height="60" as="geometry" />
        </mxCell>
        <mxCell id="k4MI8N_epbBp80HEhz9m-42" value="&lt;span style=&quot;white-space: pre;&quot;&gt;&#x9;&lt;/span&gt;}&lt;div&gt;&lt;br&gt;&lt;/div&gt;&lt;div&gt;}&lt;/div&gt;" style="text;html=1;align=center;verticalAlign=middle;resizable=0;points=[];autosize=1;strokeColor=none;fillColor=none;" vertex="1" parent="1">
          <mxGeometry x="575" y="790" width="50" height="60" as="geometry" />
        </mxCell>
        <mxCell id="k4MI8N_epbBp80HEhz9m-43" value="&lt;b style=&quot;font-size: 20px;&quot;&gt;&lt;font style=&quot;font-size: 20px;&quot;&gt;COMPARANDO&lt;/font&gt;&lt;/b&gt;&lt;div style=&quot;font-size: 20px;&quot;&gt;&lt;b style=&quot;&quot;&gt;&lt;font style=&quot;font-size: 20px;&quot;&gt;CADEIAS (STRINGS)&lt;/font&gt;&lt;/b&gt;&lt;/div&gt;" style="text;html=1;align=center;verticalAlign=middle;resizable=0;points=[];autosize=1;strokeColor=none;fillColor=none;labelBorderColor=default;labelBackgroundColor=#3399FF;" vertex="1" parent="1">
          <mxGeometry x="50" y="10" width="220" height="60" as="geometry" />
        </mxCell>
      </root>
    </mxGraphModel>
  </diagram>
</mxfile>
